<svg xmlns="http://www.w3.org/2000/svg" id="_图层_1" data-name="图层 1" viewBox="0 0 1024 1024"><defs><style>.cls-1{fill:none}.cls-2{fill:#616161}</style></defs><path d="M118.04,252.33l65.59,112.9,61.29-112.9h-126.88ZM312.66,364.16h363.43l62.36-111.82-466.65-2.15-77.42,135.48,120.43,206.45,64.51-111.82-66.66-116.13ZM777.16,250.18l-118.28,202.14,131.18,2.15,116.13-204.29h-129.03ZM347.07,592.11h227.95l-70.97,129.03h-116.13l122.58,215.05,262.36-449.45-361.28-4.3-64.51,109.67ZM437.38,622.21h-105.37l45.16,75.27h105.37l-45.16-75.27Z" class="cls-2"/><g><path d="M212.04,158.56h-18.5l-2.45-11.95h18.07l2.88,11.95ZM246.89,163.32l-27.58,32.98h-18.07l-6.84-32.98h18.65l2.66,11.02,7.85-10.94,23.33-.07ZM260.21,146.76l-9.22,11.81h-23.26l8.57-11.95,23.9.14Z" class="cls-2"/><path d="M282.53,196.44h-32.76l8.78-33.41h17.64l-5.9,20.74h22.1l-9.86,12.67ZM280.58,146.61l-17.64.07-3.46,11.95h17.71l3.38-12.02ZM279.5,176.71l10.44-13.39h35.06l6.98,33.12h-18.07l-4.82-19.73h-29.59ZM292.82,158.64l10.66-11.88h18.22l2.52,11.88h-31.39Z" class="cls-2"/><path d="M376.92,191.69c-1.92,1.97-4.9,3.5-8.93,4.61l-39.31-.07,3.82-13.54h27.22c2.35-.29,3.53-1.44,3.53-3.46,0-1.2-.16-2.02-.47-2.45-.31-.43-1.04-.84-2.2-1.22h-13.9c-3.02,0-5.23-.76-6.62-2.27-1.39-1.51-2.09-3.97-2.09-7.38v-2.52h31.82c3.89.48,6.5,1.25,7.85,2.3.19.14,1.49,1.56,3.89,4.25.91,2.3,1.37,4.92,1.37,7.85,0,5.33-1.99,9.96-5.98,13.9ZM389.08,146.61l-3.24,11.95h-46.66c1.01-3.07,2.85-5.78,5.54-8.14,2.93-2.54,5.9-3.82,8.93-3.82h35.42Z" class="cls-2"/><path d="M432.72,191.69c-1.92,1.97-4.9,3.5-8.93,4.61l-39.31-.07,3.82-13.54h27.22c2.35-.29,3.53-1.44,3.53-3.46,0-1.2-.16-2.02-.47-2.45-.31-.43-1.04-.84-2.2-1.22h-13.9c-3.02,0-5.23-.76-6.62-2.27-1.39-1.51-2.09-3.97-2.09-7.38v-2.52h31.82c3.89.48,6.5,1.25,7.85,2.3.19.14,1.49,1.56,3.89,4.25.91,2.3,1.37,4.92,1.37,7.85,0,5.33-1.99,9.96-5.98,13.9ZM444.88,146.61l-3.24,11.95h-46.66c1.01-3.07,2.85-5.78,5.54-8.14,2.93-2.54,5.9-3.82,8.93-3.82h35.42Z" class="cls-2"/><path d="M494.35,163.39l-9.07,32.83-26.35.07c-8.26,0-13.37-2.47-15.34-7.42-.53-1.34-.79-2.69-.79-4.03,0-.77.1-1.49.29-2.16l5.33-19.3h15.98l-5.11,17.86c-.24.82-.36,1.42-.36,1.8,0,.96.48,1.58,1.44,1.87h11.52l6.05-21.53h16.42ZM468.93,146.83l-3.31,11.88h-16.2l3.38-11.81,16.13-.07ZM498.88,146.83l-3.38,11.88h-16.42l3.31-11.88h16.49Z" class="cls-2"/><path d="M590.68,191.69c-1.92,1.97-4.9,3.5-8.93,4.61l-39.31-.07,3.82-13.54h27.22c2.35-.29,3.53-1.44,3.53-3.46,0-1.2-.16-2.02-.47-2.45-.31-.43-1.04-.84-2.2-1.22h-13.9c-3.02,0-5.23-.76-6.62-2.27-1.39-1.51-2.09-3.97-2.09-7.38v-2.52h31.82c3.89.48,6.5,1.25,7.85,2.3.19.14,1.49,1.56,3.89,4.25.91,2.3,1.37,4.92,1.37,7.85,0,5.33-1.99,9.96-5.98,13.9ZM602.85,146.61l-3.24,11.95h-46.66c1.01-3.07,2.86-5.78,5.54-8.14,2.93-2.54,5.9-3.82,8.93-3.82h35.42Z" class="cls-2"/><path d="M657.93,146.61l-3.31,11.95h-47.95l7.63-11.95h43.63ZM639.28,163.39l-8.71,32.9h-16.49l8.93-32.9h16.27Z" class="cls-2"/><path d="M706.31,163.39l-9.07,32.83-26.35.07c-8.26,0-13.37-2.47-15.34-7.42-.53-1.34-.79-2.69-.79-4.03,0-.77.1-1.49.29-2.16l5.33-19.3h15.98l-5.11,17.86c-.24.82-.36,1.42-.36,1.8,0,.96.48,1.58,1.44,1.87h11.52l6.05-21.53h16.42ZM680.9,146.83l-3.31,11.88h-16.2l3.38-11.81,16.13-.07ZM710.85,146.83l-3.38,11.88h-16.42l3.31-11.88h16.49Z" class="cls-2"/><path d="M763.69,163.39c0,8.43-1.63,15.04-4.9,19.83-2.64,3.88-5.04,6.63-7.2,8.26-4.32,3.21-9.77,4.81-16.34,4.81h-28.58l9.43-32.9h17.71l-5.98,20.02c1.15.48,2.38.72,3.67.72,2.4,0,4.9-.74,7.49-2.22,4.18-2.34,6.91-5.72,8.21-10.12.67-2.25,1.05-5.05,1.15-8.39h15.34ZM762.83,158.71h-49.9l7.7-12.1h29.02c3.17,0,6.12,1.24,8.86,3.71,2.74,2.47,4.18,5.27,4.32,8.39Z" class="cls-2"/><path d="M786.45,163.39l-9,32.9h-17.5l9.14-32.9h17.35ZM790.84,146.61l-3.31,12.1h-17.35l3.46-12.1h17.21Z" class="cls-2"/><path d="M840.8,163.32l-.29,1.15c-.77,2.5-2.09,7.06-3.96,13.68-1.2,4.18-3.05,7.68-5.54,10.51-4.51,5.09-10.56,7.63-18.14,7.63h-8.57c-4.61,0-8.26-.86-10.94-2.59-3.31-2.06-4.97-5.26-4.97-9.58,0-2.3.36-4.75,1.08-7.34l3.6-13.32h16.78l-4.97,17.5c-.19.82-.29,1.44-.29,1.87,0,.96.43,1.56,1.3,1.8h10.44c1.3-.33,2.26-1.56,2.88-3.67l5.18-17.57,16.42-.07ZM841.81,158.71h-47.45c.96-3.26,2.59-6.02,4.9-8.28,2.83-2.74,5.76-4.1,8.78-4.1h24.48c6.19,0,9.29,3.29,9.29,9.86v2.52Z" class="cls-2"/></g><rect width="1024" height="1024" class="cls-1"/></svg>